<?xml version="1.0" encoding="utf-8"?>
<!-- Generator: Adobe Illustrator 18.0.0, SVG Export Plug-In . SVG Version: 6.00 Build 0)  -->
<!DOCTYPE svg PUBLIC "-//W3C//DTD SVG 1.1//EN" "http://www.w3.org/Graphics/SVG/1.1/DTD/svg11.dtd">
<svg version="1.1" xmlns="http://www.w3.org/2000/svg" xmlns:xlink="http://www.w3.org/1999/xlink" x="0px" y="0px"
	 viewBox="0 0 2560 1440" style="enable-background:new 0 0 2560 1440;" xml:space="preserve">
<style type="text/css">
	.st0{fill:#21A1E8;}
	.st1{opacity:0.2;}
	.st2{fill:#4ABAFF;}
	.st3{fill:url(#SVGID_1_);}
	.st4{fill:#358EC4;}
	.st5{fill:url(#SVGID_2_);}
	.st6{opacity:0.4;fill:#FFFFFF;}
	.st7{opacity:0.5;fill:#FFFFFF;}
	.st8{opacity:0.8;fill:url(#SVGID_3_);}
	.st9{opacity:0.8;clip-path:url(#SVGID_5_);fill:url(#SVGID_6_);}
	.st10{opacity:0.5;fill:url(#SVGID_7_);}
	.st11{fill:#64C0F9;}
	.st12{opacity:0.5;fill:url(#SVGID_8_);}
	.st13{opacity:0.5;fill:url(#SVGID_9_);}
	.st14{opacity:0.5;fill:url(#SVGID_10_);}
	.st15{fill:#FFFFFF;}
	.st16{opacity:0.15;fill:#FFFFFF;}
	.st17{opacity:0.3;fill:#FFFFFF;}
	.st18{opacity:0.08;fill:#FFFFFF;}
	.st19{clip-path:url(#SVGID_14_);}
	.st20{fill:url(#SVGID_15_);}
	.st21{opacity:0.3;}
	.st22{fill:#FFDF9F;}
	.st23{fill:#E56565;}
	.st24{fill:url(#SVGID_18_);}
	.st25{fill:url(#SVGID_19_);}
	.st26{fill:url(#SVGID_20_);}
	.st27{fill:url(#SVGID_21_);}
	.st28{fill:url(#SVGID_22_);}
	.st29{fill:url(#SVGID_23_);}
</style>
<g id="base">
	<rect x="0.8433" y="0.5" class="st0" width="2560" height="1439.4203"/>
	<g class="st1">
		<path class="st2" d="M53.7891,1350.526c0,0,9.5503-1.8335,27.5027-4.9113c17.9505-3.1064,44.3145-7.439,77.9522-12.3986
			c33.6361-4.9698,74.5419-10.6119,121.5739-16.2489c5.8806-0.6921,11.8553-1.3953,17.922-2.1091
			c6.0696-0.691,12.231-1.3925,18.4821-2.1041c6.2532-0.697,12.596-1.4042,19.026-2.1211
			c6.4348-0.674,12.9568-1.3572,19.5638-2.0492c6.6096-0.6719,13.3041-1.3524,20.0812-2.0414
			c6.7798-0.6642,13.638-1.3879,20.5851-2.0261c13.8938-1.2808,28.1089-2.6046,42.6382-3.8412
			c29.056-2.4912,59.3494-4.8468,90.7385-6.8538c15.6907-1.0529,31.6619-1.9315,47.8766-2.8811
			c16.2245-0.796,32.694-1.6335,49.405-2.2826c33.4149-1.4211,67.7741-2.344,102.9161-2.5022
			c8.7826-0.1307,17.6195-0.0042,26.4981,0.0144c4.4395,0.0204,8.8901,0.0408,13.3518,0.0613l3.4096,0.0469l3.3401,0.0759
			c2.2281,0.0542,4.4588,0.1085,6.6923,0.1628c4.4402,0.0841,9.0236,0.2908,13.551,0.4386
			c2.2698,0.0856,4.5422,0.1713,6.8173,0.2571c2.2647,0.1171,4.532,0.2343,6.8018,0.3516
			c9.0795,0.4408,18.1895,1.0143,27.3281,1.6813c73.1507,5.3741,147.7882,17.3625,223.1571,30.4459
			c37.6986,6.5609,75.6271,13.4174,113.6758,20.418c38.0482,6.9945,76.2389,14.0148,114.4738,20.6949
			c76.4783,13.3159,153.0497,25.6038,228.4259,35.371c37.6904,4.8668,75.1248,8.9384,112.1597,11.5457
			c37.0305,2.6217,73.6428,3.884,109.5897,3.6167c4.5179-0.0498,9.0264-0.0995,13.5251-0.149
			c4.5358-0.0492,8.9272-0.1857,13.3821-0.2731c4.427-0.0758,8.8969-0.2675,13.3287-0.3978
			c4.4396-0.1083,8.8644-0.3083,13.28-0.4773c17.6614-0.701,35.127-1.8232,52.3865-3.1273
			c17.26-1.3093,34.3016-2.9807,51.111-4.9006c16.8147-1.8762,33.3934-4.0568,49.7185-6.491
			c65.3381-9.5365,126.5997-23.1328,183.5443-35.3253c28.4739-6.0845,55.8525-11.8853,82.0408-16.8557
			c13.0901-2.505,25.8765-4.824,38.3389-6.9189c12.4597-2.1057,24.5854-4.0486,36.3687-5.7177
			c23.5496-3.4352,45.6943-5.9495,66.1892-7.882c20.5061-1.8594,39.3711-3.0936,56.4165-3.8452
			c8.5203-0.41,16.5903-0.6387,24.1804-0.8354c3.7952-0.0796,7.4712-0.1567,11.0261-0.2312
			c3.5552-0.0261,6.989-0.0513,10.2993-0.0756c6.6184-0.0494,12.7427,0.0115,18.3491,0.0267
			c5.6086,0.0864,10.7002,0.1157,15.2603,0.2418c4.5581,0.1302,8.5847,0.2452,12.0603,0.3445
			c3.4736,0.1328,6.3967,0.2445,8.7505,0.3345c4.7051,0.2031,7.1335,0.3081,7.1335,0.3081v2.7999c0,0-2.4224,0.1299-7.1162,0.3815
			c-2.3457,0.1198-5.259,0.2684-8.7207,0.4451c-3.4592,0.2068-7.4666,0.4463-12.0029,0.7174
			c-18.1365,1.1057-44.7153,3.0341-78.3362,6.8037c-16.8079,1.902-35.374,4.2756-55.5034,7.3335
			c-10.062,1.5526-20.5239,3.1998-31.3423,5.1196c-5.4143,0.9205-10.9141,1.9392-16.5115,2.9415
			c-5.5891,1.062-11.2766,2.105-17.0417,3.2611c-23.083,4.4807-47.5269,9.8651-73.2529,15.8494
			c-25.717,6.0403-52.7119,12.7365-80.947,19.7981c-14.1494,3.4868-28.594,7.0461-43.3147,10.6737
			c-14.7554,3.5781-29.8379,7.1118-45.2306,10.588c-15.3893,3.4919-31.1135,6.8129-47.1436,9.9662
			c-16.0316,3.1399-32.3601,6.1722-48.9961,8.8293c-16.6344,2.6626-33.5544,5.0729-50.7307,7.1758
			c-17.1814,2.0608-34.6222,3.7584-52.277,5.1462c-17.6553,1.3944-35.5364,2.2992-53.5887,2.9373
			c-9.0347,0.3322-18.0802,0.5233-27.2291,0.6226c-4.562,0.0288-9.2065,0.1061-13.7281,0.0939
			c-4.5585-0.0122-9.1268-0.0243-13.7047-0.0365c-36.8236-0.3276-74.173-2.485-111.7745-6.0198
			c-37.603-3.5513-75.475-8.4167-113.3999-14.4917c-75.8826-12.129-151.7152-29.7401-227.4462-46.8405
			c-75.7365-17.0701-151.6571-33.1886-227.1349-44.4436c-37.7299-5.6049-75.3259-9.9602-112.5364-12.9006
			c-37.2106-2.9376-74.0012-4.7172-110.1396-5.3392c-9.0354-0.1237-18.0269-0.301-26.9775-0.3057
			c-4.4794-0.0323-8.9387-0.0302-13.3655-0.0146c-4.4484,0.0203-8.8188-0.0188-13.3138,0.0625
			c-8.8945,0.1149-17.7465,0.229-26.5538,0.3428c-8.815,0.1423-17.5851,0.2839-26.308,0.4248
			c-34.8932,0.5769-69.0353,1.6011-102.2766,2.6436c-33.2389,1.1189-65.572,2.5135-96.8433,4.0758
			c-15.6358,0.8163-31.0072,1.6188-46.0953,2.4064c-15.0857,0.8936-29.8882,1.7703-44.3886,2.6292
			c-58.0006,3.5586-111.1577,7.3765-158.2673,11.0114c-47.1062,3.6733-88.1788,7.0463-121.9956,9.9907
			c-33.8222,2.9963-60.3968,5.3506-78.5159,6.9558c-18.1179,1.6787-27.7807,2.574-27.7807,2.574L53.7891,1350.526z"/>
	</g>
</g>
<g id="base_x5F_foreground">
	<g>
		<linearGradient id="SVGID_1_" gradientUnits="userSpaceOnUse" x1="2353.8528" y1="242.7643" x2="2353.8528" y2="83.5639">
			<stop  offset="0" style="stop-color:#FFD997"/>
			<stop  offset="0.3529" style="stop-color:#FFD394"/>
			<stop  offset="0.8207" style="stop-color:#FFC28D"/>
			<stop  offset="1" style="stop-color:#FFBA89"/>
		</linearGradient>
		<path class="st3" d="M2431.6448,163.2531c0,5.9807,0.2844,11.688-0.9873,17.2836c-1.3135,5.7778-2.6638,11.4724-5.1787,16.6852
			c-2.5564,5.2987-5.9529,10.0858-9.5872,14.6371c-3.6521,4.5735-7.5022,9.0321-12.0757,12.684
			c-4.5513,3.6342-9.1733,7.5944-14.4722,10.1507c-5.2126,2.5147-10.9878,4.5217-16.7654,5.835
			c-5.5957,1.2719-11.6572,2.2356-17.6379,2.2356s-12.0911-0.7485-17.6868-2.0204c-5.7778-1.3133-10.3584-5.9111-15.5713-8.4259
			c-5.2986-2.5563-10.7893-4.4886-15.3406-8.1228c-4.5735-3.652-9.4104-7.1967-13.0623-11.7702
			c-3.6343-4.5513-6.9185-9.6168-9.4749-14.9155c-2.5146-5.2126-3.8201-11.0695-5.1333-16.8471
			c-1.272-5.5957-2.6533-11.4285-2.6533-17.4091c0-5.9807,2.0774-11.6552,3.3494-17.2509
			c1.3132-5.7778,3.405-11.0781,5.9199-16.2909c2.5564-5.2987,5.7087-10.001,9.343-14.5524
			c3.6519-4.5735,6.0696-10.5353,10.6431-14.1872c4.5513-3.6342,9.8677-6.8047,15.1663-9.361
			c5.2126-2.5147,11.2429-3.6265,17.0205-4.9397c5.5957-1.2719,11.4995-3.1071,17.4802-3.1071s11.7817,2.2879,17.3774,3.5598
			c5.7778,1.3133,10.7837,4.3093,15.9966,6.8242c5.2986,2.5563,11.6357,3.5235,16.1873,7.1578
			c4.5732,3.652,8.7461,8.1639,12.3982,12.7374c3.634,4.5513,7.1177,9.615,9.6738,14.9137
			c2.5146,5.2126,2.8308,11.4214,4.144,17.1989C2431.9897,151.5514,2431.6448,157.2724,2431.6448,163.2531z"/>
	</g>
	<polygon class="st4" points="987,1355.7476 1025.277,1330.2295 1077.5889,1342.9885 1083.9684,1355.7476 1105.6586,1342.9885 
		1105.6586,1378.7137 1086.5201,1371.0583 1029.1046,1394.0245 1003.5867,1383.8173 1001.4893,1378.2244 987,1369.7823 	"/>
	<polygon class="st4" points="504.011,1346.7604 525.1678,1330.7604 547.011,1346.7604 560.011,1338.7604 560.011,1360.7604 
		547.011,1354.7604 523.6776,1363.427 	"/>
	<polygon class="st4" points="603.1776,1306.427 624.511,1294.2604 646.1776,1306.427 659.1776,1298.427 659.1776,1320.427 
		646.1776,1314.427 622.8443,1323.0936 	"/>
	<polygon class="st4" points="532.011,1267.2604 553.1678,1251.2604 575.011,1267.2604 588.011,1259.2604 588.011,1281.2604 
		575.011,1275.2604 551.6776,1283.927 	"/>
	<polygon class="st4" points="1712.5061,1294.7604 1733.8395,1278.5104 1755.5061,1290.677 1768.5061,1282.677 1768.5061,1304.677 
		1755.5061,1298.677 1732.1727,1307.3436 	"/>
	<polygon class="st4" points="1868.2396,1379.4255 1906.5166,1353.9076 1958.8285,1366.6666 1965.208,1379.4255 
		1986.8983,1366.6666 1986.8983,1402.3917 1967.7598,1394.7363 1910.3444,1417.7025 1884.8264,1407.4954 1882.729,1401.9023 
		1868.2396,1393.4604 	"/>
</g>
<g id="sky">
	<linearGradient id="SVGID_2_" gradientUnits="userSpaceOnUse" x1="1280.8433" y1="1438.6046" x2="1280.8433" y2="0.5">
		<stop  offset="0" style="stop-color:#2EC3FF"/>
		<stop  offset="0.2956" style="stop-color:#25BEFF"/>
		<stop  offset="0.7694" style="stop-color:#0EB2FF"/>
		<stop  offset="1" style="stop-color:#00ABFF"/>
	</linearGradient>
	<polygon class="st5" points="0.8432,0.5 2560.8433,325.5114 2560.8433,1438.6046 0.8432,1113.5931 	"/>
</g>
<g id="sky_x5F_foreground">
	<path class="st6" d="M1700.5267,113.8689c-11.865,3.8746-27.7292,18.3277-27.7357,28c-0.0109,16.25,19.689,17.6422,29.5,18.25
		c28.25,1.75,38-8.25,38-8.25s13.5,9.5,39,11.0197c15.5829,0.9287,55.3981,1.1806,60.9886-13.3946
		c4.5309-11.8121-16.9742-39.2698-29.4886-41.1251c-16.8625-2.5-24,11-24,11s-2-25-37-23.75c-23.8188,0.8507-29,19.2762-29,19.2762
		S1713.541,109.6189,1700.5267,113.8689z"/>
	<path class="st7" d="M1075.2854,67.0337c-23.8008,0.8876-29.6337,18.3975-28.4891,27.1187
		c-7.1255-1.6983-22.7115,3.1619-24.2443,24.696c-0.7218,10.1415,6.1675,19.9741,16.7059,23.9567
		c11.2814,4.2633,23.7393,3.4902,35.4647,1.9028c5.2241-0.7072,10.9017-2.525,16.0658-1.6631
		c6.0123,1.0035,11.9399,2.5818,17.9933,3.3865c19.755,2.6263,38.1631-0.431,57.2799-5.3706
		c0.2914-0.0753,24.144,11.5781,41.3333-4.6255c11.2339-10.5897,11.4969-42.5893-16.0574-52.2252
		c-15.4172-5.3916-25.1359,2.8444-32.8585,4.6806c1.4949-13.1044-18.166-22.9548-26.6638-23.1873
		c-14.704-0.4023-23.9661,4.0052-31.7074,13.9732C1098.2089,74.763,1087.558,66.576,1075.2854,67.0337z"/>
</g>
<g id="water">
</g>
<g id="water_foreground">
	<linearGradient id="SVGID_3_" gradientUnits="userSpaceOnUse" x1="1280.4216" y1="1120.7655" x2="1280.4216" y2="988.7655">
		<stop  offset="0" style="stop-color:#2EC3FF;stop-opacity:0"/>
		<stop  offset="0.3598" style="stop-color:#17B7FF;stop-opacity:0.3598"/>
		<stop  offset="0.7246" style="stop-color:#06AEFF;stop-opacity:0.7246"/>
		<stop  offset="1" style="stop-color:#00ABFF"/>
	</linearGradient>
	<path id="background-wave-1" class="st8" d="M0.8432,1031.4575c0,0,32.8235,48.5275,174.8235,48.5275c127.6817,0,131.095-84.4918,267.6281-84.4918
		c157.6139,0,206.7052,93.0772,531.7051,93.0772c106.0001,0,190.8131-99.8049,310-99.8049
		c170,0,192.0001,113.8622,494.7113,113.8622c81.9554,0,221.6659-87.0329,358.1936-87.0329
		c153.4722,0,228.0952,86.2681,422.0952,86.2681v18.9026H0.8432V1031.4575z"/>
	<g id="background-wave-2">
		<defs>
			<polygon id="SVGID_4_" points="0.8432,-43.3939 2560.8433,187.6279 2560.8433,1344.1383 0.8432,1113.1165 			"/>
		</defs>
		<clipPath id="SVGID_5_">
			<use xlink:href="#SVGID_4_"  style="overflow:visible;"/>
		</clipPath>

			<linearGradient id="SVGID_6_" gradientUnits="userSpaceOnUse" x1="1383.4589" y1="1167.2922" x2="1383.4589" y2="1005.6548" gradientTransform="matrix(0.9993 0.0366 -0.0366 0.9993 41.2 -47.1627)">
			<stop  offset="0" style="stop-color:#2EC3FF;stop-opacity:0"/>
			<stop  offset="0.1696" style="stop-color:#1DBAFF;stop-opacity:0.1696"/>
			<stop  offset="0.3978" style="stop-color:#0DB2FF;stop-opacity:0.3978"/>
			<stop  offset="0.6552" style="stop-color:#03ADFF;stop-opacity:0.6552"/>
			<stop  offset="1" style="stop-color:#00ABFF"/>
		</linearGradient>
		<path class="st9" d="M-55,955.6428c0,0,131.5493,120.7309,364,129.2459c56.5101,2.0701,170.9108-0.9476,225.6064-16.161
			c68.6933-19.1068,134.14-43.8436,206.02-51.8279c63.6887-7.0744,129.576-3.0353,189.3141,20.152
			c47.308,18.3625,89.2263,47.9827,136.3184,66.8019c45.0531,18.0044,97.2998,18.822,145.4556,20.5861
			c62.0643,2.2736,139.527,5.7374,197.6216-20.0443c80.8231-35.8684,156.1088-72.4585,247.5828-64.5778
			c76.0747,6.5541,146.3889,41.8033,220.3535,60.7662c45.1276,11.5697,91.4731,18.1238,137.9106,21.3712
			c39.8566,2.7871,82.6449,6.594,122.2943,5.6473c45.8186-1.0941,94.8838-19.7034,140.4978-26.4934
			c47.9648-7.1398,96.5291-11.1775,145.0366-8.9573c39.384,1.8026,78.5691,7.7672,116.7283,17.6699
			c41.1538,10.6797,77.3501,29.2798,116.6255,44.3428c55.05,21.1128,111.5981,40.0369,166.8137,61.5225l-267.6956-9.8062
			L-53.991,1117.4254L-55,955.6428z"/>
	</g>
</g>
<g id="city">
</g>
<g id="city_x5F_foreground">
	<polygon class="st0" points="361.0191,233.0883 417.4082,230.5683 415.1173,280.9688 455.4377,279.5943 455.4377,208.7251 
		502.1728,208.7251 502.1728,242.0229 543.4096,242.0229 541.1187,275.4706 584.6464,274.096 584.1883,253.608 627.4869,253.608 
		623.7069,331.1403 365.6331,334.5767 	"/>
	<polygon class="st4" points="0.5795,152.5627 80.5563,152.5627 80.5563,207.5886 128.819,205.1873 128.819,176.5262 
		188.062,176.5262 186.4461,232.5813 227.5054,232.5813 227.5054,258.495 276.6303,258.2886 278.6494,186.2175 340.2252,187.8433 
		338.6061,260.5252 381.8988,260.1213 378.4624,330.453 0,343.5135 	"/>
	<linearGradient id="SVGID_7_" gradientUnits="userSpaceOnUse" x1="1740.5061" y1="482.2254" x2="1740.5061" y2="851.5104">
		<stop  offset="0" style="stop-color:#2EAFFF;stop-opacity:0"/>
		<stop  offset="0.4326" style="stop-color:#1DA5FF;stop-opacity:0.4326"/>
		<stop  offset="1" style="stop-color:#0093FF"/>
	</linearGradient>
	<polygon class="st10" points="1442.6788,851.5104 1721.2073,482.2254 2038.3334,851.5104 	"/>
	<polygon class="st11" points="1359.2927,340.866 1499.8344,154.53 1659.8516,340.866 	"/>
	<linearGradient id="SVGID_8_" gradientUnits="userSpaceOnUse" x1="1509.5721" y1="181.9502" x2="1509.5721" y2="351.177">
		<stop  offset="0" style="stop-color:#2EC3FF;stop-opacity:0"/>
		<stop  offset="0.4326" style="stop-color:#1DBAFF;stop-opacity:0.4326"/>
		<stop  offset="1" style="stop-color:#00ABFF"/>
	</linearGradient>
	<polygon class="st12" points="1373.0912,351.177 1500.7284,181.9502 1646.0532,351.177 	"/>
	<path class="st4" d="M1537.8329,340.9502c2.6879-6.7197,130.3615-170.6796,130.3615-170.6796l147.8328,170.6796H1537.8329z"/>
	<linearGradient id="SVGID_9_" gradientUnits="userSpaceOnUse" x1="1678.4299" y1="193.8271" x2="1678.4299" y2="370.8797">
		<stop  offset="0" style="stop-color:#034A67;stop-opacity:0"/>
		<stop  offset="0.8161" style="stop-color:#014767;stop-opacity:0.8161"/>
		<stop  offset="1" style="stop-color:#004567"/>
	</linearGradient>
	<polygon class="st13" points="1535.6376,370.8797 1669.1772,193.8271 1821.2224,370.8797 	"/>
	<polygon class="st11" points="1586.3234,424.5103 1871.1879,46.8249 2195.5278,424.5103 	"/>
	<linearGradient id="SVGID_10_" gradientUnits="userSpaceOnUse" x1="1894.5061" y1="78.2254" x2="1894.5061" y2="447.5103">
		<stop  offset="0" style="stop-color:#2EC3FF;stop-opacity:0"/>
		<stop  offset="0.4326" style="stop-color:#1DBAFF;stop-opacity:0.4326"/>
		<stop  offset="1" style="stop-color:#00ABFF"/>
	</linearGradient>
	<polygon class="st14" points="1596.6788,447.5103 1875.2073,78.2254 2192.3333,447.5103 	"/>
	<path class="st4" d="M1997.6666,234.9502H1952.75c0,0-9.7935-20.154-7.375-30.3116c1.4502-6.0909,4.5084-14.1884,11.4252-14.1884
		c8.5332,0,17.4733,8.4542,25.4498,18.3102C1987.625,215.4018,1997.6666,234.9502,1997.6666,234.9502z"/>
	<polygon class="st15" points="2560,234.9502 1952.75,234.9502 1950.546,229.9502 2560,229.9502 	"/>
	<path class="st15" d="M2419.1135,224.6168l2.9407-26.8333h95.2031l2.7568,26.8333H2419.1135z M2490.7183,202.9709l0.2817,7.8333
		h14.9556v-7.8333H2490.7183z M2471.3015,202.9709l0.1152,7.8333h15.1221v-7.8333H2471.3015z M2451.7224,202.9709l0.1108,7.8333
		h15.1265v-7.8333H2451.7224z M2431.6667,202.9709l-0.4404,7.8333h15.9717v-7.8333H2431.6667z"/>
	<path class="st15" d="M2310.6775,224.6168l2.9407-26.8333h95.2031l2.7568,26.8333H2310.6775z M2382.4683,202.9709l0.2817,7.8333
		h14.9556v-7.8333H2382.4683z M2363.0515,202.9709l0.1152,7.8333h15.1221v-7.8333H2363.0515z M2343.4724,202.9709l0.1108,7.8333
		h15.1265v-7.8333H2343.4724z M2323.4167,202.9709l-0.4404,7.8333h15.9717v-7.8333H2323.4167z"/>
	<path class="st15" d="M2202.3333,224.6168l9.9248-26.8333h88.219l2.7571,26.8333H2202.3333z M2276.1348,202.9709l-0.7344,7.8333
		h15.9719v-7.8333H2276.1348z M2256.7183,202.9709l-0.7344,7.8333h15.9717v-7.8333H2256.7183z M2237.1392,202.9709l-0.7344,7.8333
		h15.9717v-7.8333H2237.1392z M2219.3147,202.9709l-2.6719,7.8333h15.9719v-7.8333H2219.3147z"/>
	<polygon class="st16" points="1495.1666,181.9502 1380.8047,340.9502 1408.5,349.0103 1503.6666,191.9502 	"/>
	<polygon class="st17" points="1857,95.5735 1691.1844,335.4691 1737.2201,338.5463 1868.2396,117.573 	"/>
	<polygon class="st18" points="1665.5,190.4502 1552.5,352.3835 1574.5,358.8233 1672.791,200.2948 	"/>
</g>
<g id="sand">
	<g>
		<g>
			<defs>
				<path id="SVGID_11_" d="M-0.8787,311.44c6.1812,1.6446,28.1397,7.547,64.4462,10.9418
					c17.8027,1.6646,39.3265,1.6784,64.4412,2.0623c24.7004,0.3775,49.2531,3.4715,73.6794,3.3788
					c24.6789-0.0937,49.2522-1.2475,73.6972-1.7471c24.6496-0.5038,49.2067-1.401,73.6655-2.2418
					c24.6167-0.8463,49.2041-0.9509,73.6756-2.061c24.5829-1.1152,49.1215-2.36,73.6066-3.663
					c24.5499-1.3064,48.9803-4.2932,73.481-5.709c24.5206-1.417,48.851-5.8969,73.3717-7.344
					c24.4962-1.4457,49.1359-0.6718,73.6816-2.0681c24.4772-1.3925,48.9808-2.9608,73.556-4.2255
					c24.4632-1.2589,48.8998-4.5508,73.5084-5.6052c24.4503-1.0477,49.0751-0.0007,73.7163-0.7702
					c24.4395-0.7632,49.032,0.9885,73.7055,0.5735c24.4257-0.4108,48.9465-0.4757,73.6464-0.4729
					c23.619,0.0027,47.2167-2.9455,70.7178-2.2233c23.5905,0.7249,47.058,3.6066,70.5479,4.9456
					c23.5502,1.3424,47.2648,0.1681,70.7322,2.0158c23.5059,1.8507,46.6244,8.0016,70.0656,10.2469
					c23.4648,2.2475,46.8226,5.2018,70.2412,7.7317c23.4312,2.5313,47.1,2.8104,70.5033,5.5114
					c23.4086,2.7016,46.7164,6.2384,70.1157,8.9966s47.0425,3.417,70.4509,6.1186c23.4028,2.7009,46.5941,7.2933,70.0248,9.8245
					c23.4178,2.5298,47.0984,2.4659,70.5625,4.7133c23.4409,2.2452,46.5859,8.0098,70.0916,9.8605
					c23.4668,1.8477,47.1913,0.2573,70.7408,1.5996c23.4896,1.339,46.9808,2.576,70.5712,3.3009
					c23.5007,0.7222,47.0162,1.584,70.6349,1.5867c17.2783,0.002,40.729-0.0287,67.2036-2.4725
					c20.8748-1.9269,43.3623-7.1625,66.593-9.9027c22.291-2.6293,45.0967-4.4396,66.8831-7.2552
					c23.908-3.0897,46.7107-6.2136,66.7043-8.8317c31.5854-4.136,56.3123-5.4199,66.9902-6.0352
					c13.6162-0.7846,36.7747-4.2062,60.0369-5.4258c23.3044-1.2218,46.6714-0.1333,60.2556-0.1333
					c15.7434,0,25.4021-1.2523,34.5034-3.6911c4.6672,37.1852-0.3501,37.3925-0.3501,74.8694
					c0,37.4785-0.7612,37.4785-0.7612,74.957c0,37.4781,0.5581,37.4781,0.5581,74.9561c0,37.4766-1.031,37.4766-1.031,74.9533
					c0,37.4783,1.7053,37.4783,1.7053,74.9567c0,37.4795,0.9685,37.4795,0.9685,74.9589c0,37.4813-1.6362,37.4813-1.6362,74.9625
					s11.2458,38.7911-0.6885,74.3215c-24.3186-2.5632-47.7002-4.3089-73.5515-2.6786c-24.3691,1.5369-49.425,5.6037-74.946,9.6174
					c-24.2834,3.819-49.1511,8.203-74.2974,13.1934c-24.3064,4.8237-48.9946,9.8544-73.9458,14.8129
					c-24.4741,4.8636-48.9143,11.0765-73.8577,15.1708c-24.7437,4.0615-49.5999,8.2567-74.6584,10.6885
					c-25.0002,2.4261-50.1777,3.7603-75.3461,3.7002c-24.7723-0.0592-49.4889-0.553-74.0917-1.376
					c-24.7788-0.8288-49.4688-2.0463-74.0178-3.5416c-24.7728-1.509-49.5494-1.8588-74.0291-3.9355
					c-24.7618-2.1007-49.2554-5.8159-73.656-8.3828c-24.7513-2.6038-49.1388-6.8272-73.4547-9.791
					c-24.7488-3.0167-49.0873-7.3572-73.3176-10.621c-24.7614-3.3352-49.2935-6.2323-73.4418-9.6915
					c-24.7953-3.5519-49.5603-4.9737-73.6321-8.5114c-24.8573-3.6531-49.2275-7.8047-73.2284-11.2837
					c-24.9587-3.6179-49.3544-7.652-73.2916-10.9033c-25.1035-3.4097-49.5128-7.5344-73.3835-10.3362
					c-25.3119-2.9709-49.9867-5.0288-73.7827-7.0735c-25.5859-2.1984-50.3219-3.1991-73.9955-4.0269
					c-22.2094-0.7766-46.4382-2.3879-72.2468-1.9282c-22.867,0.4073-46.9525,3.5155-72.1168,4.7114
					c-23.2226,1.1036-47.3238,2.2837-72.0965,3.9189c-23.4561,1.5484-47.3544,5.3892-71.8597,7.2969
					c-23.6298,1.8396-47.9798-0.0123-72.283,2.0574c-23.7752,2.0247-47.851,3.6443-71.9896,5.7924
					c-23.9113,2.1278-47.7353,6.5084-71.7316,8.6638c-24.049,2.1601-48.2512,2.2836-72.1139,4.3777
					c-24.1989,2.1237-47.8851,8.2798-71.6108,10.2388c-24.3757,2.0126-48.6942,0.5593-72.267,2.2936
					c-24.5975,1.8096-48.6789,3.1046-72.06,4.4932c-24.9023,1.4789-48.9772,2.8844-72.0903,3.7449
					c-25.3632,0.9442-49.4774,2.5943-72.153,2.6101c-26.1748,0.0182-50.4541,0.6099-72.2472-0.8846
					c-28.099-1.927-53.2561-5.8348-72.438-10.8391c-16.6843-32.7529,0.3148-33.3232,0.2562-74.0935
					c-0.0337-23.4194,0.0753-49.4872,0.0411-73.5175c-0.0449-31.5517,1.9113-59.5941,1.8929-73.5164
					c-0.0305-23.0582,0.0672-46.1166,0.0367-69.1749c-0.0305-23.0582-3.0359-46.1125-3.0664-69.1708
					c-0.0305-23.0582,1.3814-46.1183,1.3509-69.1766s2.0473-46.1192,2.0168-69.1775c-0.0273-20.6557-3.3167-41.307-3.344-61.9627
					C-1.1376,353.0372-0.8514,332.0956-0.8787,311.44z"/>
			</defs>
			<clipPath id="SVGID_12_">
				<use xlink:href="#SVGID_11_"  style="overflow:visible;"/>
			</clipPath>
		</g>
		<g>
			<defs>
				<path id="SVGID_13_" d="M-0.8787,311.44c6.1812,1.6446,28.1397,7.547,64.4462,10.9418
					c17.8027,1.6646,39.3265,1.6784,64.4412,2.0623c24.7004,0.3775,49.2531,3.4715,73.6794,3.3788
					c24.6789-0.0937,49.2522-1.2475,73.6972-1.7471c24.6496-0.5038,49.2067-1.401,73.6655-2.2418
					c24.6167-0.8463,49.2041-0.9509,73.6756-2.061c24.5829-1.1152,49.1215-2.36,73.6066-3.663
					c24.5499-1.3064,48.9803-4.2932,73.481-5.709c24.5206-1.417,48.851-5.8969,73.3717-7.344
					c24.4962-1.4457,49.1359-0.6718,73.6816-2.0681c24.4772-1.3925,48.9808-2.9608,73.556-4.2255
					c24.4632-1.2589,48.8998-4.5508,73.5084-5.6052c24.4503-1.0477,49.0751-0.0007,73.7163-0.7702
					c24.4395-0.7632,49.032,0.9885,73.7055,0.5735c24.4257-0.4108,48.9465-0.4757,73.6464-0.4729
					c23.619,0.0027,47.2167-2.9455,70.7178-2.2233c23.5905,0.7249,47.058,3.6066,70.5479,4.9456
					c23.5502,1.3424,47.2648,0.1681,70.7322,2.0158c23.5059,1.8507,46.6244,8.0016,70.0656,10.2469
					c23.4648,2.2475,46.8226,5.2018,70.2412,7.7317c23.4312,2.5313,47.1,2.8104,70.5033,5.5114
					c23.4086,2.7016,46.7164,6.2384,70.1157,8.9966s47.0425,3.417,70.4509,6.1186c23.4028,2.7009,46.5941,7.2933,70.0248,9.8245
					c23.4178,2.5298,47.0984,2.4659,70.5625,4.7133c23.4409,2.2452,46.5859,8.0098,70.0916,9.8605
					c23.4668,1.8477,47.1913,0.2573,70.7408,1.5996c23.4896,1.339,46.9808,2.576,70.5712,3.3009
					c23.5007,0.7222,47.0162,1.584,70.6349,1.5867c17.2783,0.002,40.729-0.0287,67.2036-2.4725
					c20.8748-1.9269,43.3623-7.1625,66.593-9.9027c22.291-2.6293,45.0967-4.4396,66.8831-7.2552
					c23.908-3.0897,46.7107-6.2136,66.7043-8.8317c31.5854-4.136,56.3123-5.4199,66.9902-6.0352
					c13.6162-0.7846,36.7747-4.2062,60.0369-5.4258c23.3044-1.2218,46.6714-0.1333,60.2556-0.1333
					c15.7434,0,25.4021-1.2523,34.5034-3.6911c4.6672,37.1852-0.3501,37.3925-0.3501,74.8694
					c0,37.4785-0.7612,37.4785-0.7612,74.957c0,37.4781,0.5581,37.4781,0.5581,74.9561c0,37.4766-1.031,37.4766-1.031,74.9533
					c0,37.4783,1.7053,37.4783,1.7053,74.9567c0,37.4795,0.9685,37.4795,0.9685,74.9589c0,37.4813-1.6362,37.4813-1.6362,74.9625
					s11.2458,38.7911-0.6885,74.3215c-24.3186-2.5632-47.7002-4.3089-73.5515-2.6786c-24.3691,1.5369-49.425,5.6037-74.946,9.6174
					c-24.2834,3.819-49.1511,8.203-74.2974,13.1934c-24.3064,4.8237-48.9946,9.8544-73.9458,14.8129
					c-24.4741,4.8636-48.9143,11.0765-73.8577,15.1708c-24.7437,4.0615-49.5999,8.2567-74.6584,10.6885
					c-25.0002,2.4261-50.1777,3.7603-75.3461,3.7002c-24.7723-0.0592-49.4889-0.553-74.0917-1.376
					c-24.7788-0.8288-49.4688-2.0463-74.0178-3.5416c-24.7728-1.509-49.5494-1.8588-74.0291-3.9355
					c-24.7618-2.1007-49.2554-5.8159-73.656-8.3828c-24.7513-2.6038-49.1388-6.8272-73.4547-9.791
					c-24.7488-3.0167-49.0873-7.3572-73.3176-10.621c-24.7614-3.3352-49.2935-6.2323-73.4418-9.6915
					c-24.7953-3.5519-49.5603-4.9737-73.6321-8.5114c-24.8573-3.6531-49.2275-7.8047-73.2284-11.2837
					c-24.9587-3.6179-49.3544-7.652-73.2916-10.9033c-25.1035-3.4097-49.5128-7.5344-73.3835-10.3362
					c-25.3119-2.9709-49.9867-5.0288-73.7827-7.0735c-25.5859-2.1984-50.3219-3.1991-73.9955-4.0269
					c-22.2094-0.7766-46.4382-2.3879-72.2468-1.9282c-22.867,0.4073-46.9525,3.5155-72.1168,4.7114
					c-23.2226,1.1036-47.3238,2.2837-72.0965,3.9189c-23.4561,1.5484-47.3544,5.3892-71.8597,7.2969
					c-23.6298,1.8396-47.9798-0.0123-72.283,2.0574c-23.7752,2.0247-47.851,3.6443-71.9896,5.7924
					c-23.9113,2.1278-47.7353,6.5084-71.7316,8.6638c-24.049,2.1601-48.2512,2.2836-72.1139,4.3777
					c-24.1989,2.1237-47.8851,8.2798-71.6108,10.2388c-24.3757,2.0126-48.6942,0.5593-72.267,2.2936
					c-24.5975,1.8096-48.6789,3.1046-72.06,4.4932c-24.9023,1.4789-48.9772,2.8844-72.0903,3.7449
					c-25.3632,0.9442-49.4774,2.5943-72.153,2.6101c-26.1748,0.0182-50.4541,0.6099-72.2472-0.8846
					c-28.099-1.927-53.2561-5.8348-72.438-10.8391c-16.6843-32.7529,0.3148-33.3232,0.2562-74.0935
					c-0.0337-23.4194,0.0753-49.4872,0.0411-73.5175c-0.0449-31.5517,1.9113-59.5941,1.8929-73.5164
					c-0.0305-23.0582,0.0672-46.1166,0.0367-69.1749c-0.0305-23.0582-3.0359-46.1125-3.0664-69.1708
					c-0.0305-23.0582,1.3814-46.1183,1.3509-69.1766s2.0473-46.1192,2.0168-69.1775c-0.0273-20.6557-3.3167-41.307-3.344-61.9627
					C-1.1376,353.0372-0.8514,332.0956-0.8787,311.44z"/>
			</defs>
			<clipPath id="SVGID_14_">
				<use xlink:href="#SVGID_13_"  style="overflow:visible;"/>
			</clipPath>
			<g class="st19">
				<linearGradient id="SVGID_15_" gradientUnits="userSpaceOnUse" x1="1280.7976" y1="1267.9572" x2="1280.7976" y2="-35.1389">
					<stop  offset="0" style="stop-color:#FFD997"/>
					<stop  offset="0.998" style="stop-color:#FFBA89"/>
					<stop  offset="1" style="stop-color:#FFBA89"/>
				</linearGradient>
				<path class="st20" d="M2734.6682,1028.7952c-8.718,25.6896-15.7651,49.1891-24.4832,69.5975
					c-10.9973,25.7444-25.5889,45.6111-36.5862,64.0442c-14.9883,25.1223-28.855,44.1702-43.8433,58.3856
					c-21.0854,19.9983-41.7681,29.2494-62.8538,35.0083c-24.4187,6.6693-48.1069,10.5435-72.5256,10.5435
					c-24.7134,0-49.4265,1.2695-74.1396,1.2695s-49.4263-2.0415-74.1394-2.0415c-24.7134,0-49.4265-1.1241-74.1396-1.1241
					s-49.4263-2.1016-74.1394-2.1016c-24.7134,0-49.4265,3.493-74.1396,3.493s-49.4263-1.5851-74.1394-1.5851
					c-24.7133,0-49.4264,2.5856-74.1396,2.5856c-24.7131,0-49.4263-1.3639-74.1395-1.3639c-25.0966,0-50.1932,1.9961-75.2898,1.9961
					c-25.0967,0-50.1932-3.4398-75.2899-3.4398c-25.0966,0-50.1932,3.4133-75.2898,3.4133c-25.0967,0-50.1932-2.8435-75.2899-2.8435
					c-25.0966,0-50.1932,1.2056-75.2898,1.2056c-25.0967,0-50.1932,0.1644-75.2899,0.1644c-25.0966,0-50.1932-1.3838-75.2898-1.3838
					c-25.0967,0-50.1932-1.019-75.2899-1.019c-25.0966,0-50.1932-0.9279-75.2898-0.9279c-25.0967,0-50.1932,1.2461-75.2899,1.2461
					c-24.9351,0-49.8701,3.0625-74.8052,3.0625s-49.8701,0.943-74.8051,0.943s-49.8701-1.0076-74.8051-1.0076
					s-49.8701-3.4462-74.8052-3.4462s-49.8701,1.6542-74.8051,1.6542s-49.8701-1.5393-74.8052-1.5393
					s-49.8701,0.7682-74.8051,0.7682s-49.8701-1.0916-74.8052-1.0916s-49.8701-0.2606-74.8051-0.2606
					c-24.9351,0-49.8701-0.6882-74.8051-0.6882c-24.9351,0-49.8701,1.8892-74.8051,1.8892c-23.8336,0-47.6671,3.7559-71.5007,3.7559
					s-47.6671-0.9087-71.5007-0.9087s-47.6671-3.3799-71.5007-3.3799s-47.6671-0.3229-71.5007-0.3229
					s-47.6671,3.3307-71.5007,3.3307s-47.6671,0.5747-71.5007,0.5747s-48.9448-1.6416-72.7784-1.6416
					c-11.2847-33.2542,3.4492-35.5503,3.4492-70.6671c0-35.1169-1.1327-35.1168-1.1327-70.2338
					c0-35.1144-0.7684-35.1144-0.7684-70.2288c0-35.115-2.6401-35.115-2.6401-70.23c0-35.1157,1.5518-35.1157,1.5518-70.2314
					c0-35.1176,3.1021-35.1176,3.1021-70.2351c0-35.1182-2.1812-35.1182-2.1812-70.2364c0-35.1171,2.2099-35.1171,2.2099-70.2341
					c0-35.1185-4.2749-35.1185-4.2749-70.2371c0-35.1181,0.4686-35.1181,0.4686-70.2362c0-35.1168,1.4948-35.1168,1.4948-70.2336
					c0-35.1184-1.0545-35.1184-1.0545-70.2368c0-35.1194,2.3065-35.1194,2.3065-70.2388c0-35.1211-3.2561-35.1211-3.2561-70.2421
					s-19.9888-42.725,3.9805-68.3953c24.2972-26.0216,33.3835-6.2476,68.8683-9.1297c35.4852-2.8821,35.6207-1.2137,71.106-4.0959
					c35.487-2.8822,35.3325-4.7841,70.8195-7.6664c35.4849-2.8821,35.6157-1.2723,71.1006-4.1544
					c35.4857-2.8822,35.3353-4.7336,70.821-7.6157c35.488-2.8823,35.6141-1.3301,71.1021-4.2124
					c35.4859-2.8822,35.4926-2.8006,70.9785-5.6827c35.4854-2.8821,35.3715-4.285,70.857-7.1671
					c35.4859-2.8822,35.8174,1.1999,71.3033-1.6823c35.4867-2.8822,35.2306-6.0358,70.7173-8.918
					c35.4875-2.8823,35.3434-4.6564,70.8309-7.5387c35.4879-2.8823,35.6704-0.6361,71.1583-3.5185
					c35.488-2.8823,35.4557-3.28,70.9437-6.1623c35.4876-2.8823,35.351-4.5652,70.8386-7.4475
					c35.4871-2.8823,35.7504,0.3598,71.2374-2.5225c35.4866-2.8822,35.3428-4.6526,70.8295-7.5348
					c35.4869-2.8822,35.5897-1.6164,71.0765-4.4987c35.4885-2.8824,35.5074-2.6498,70.996-5.5321
					c35.4871-2.8823,35.321-4.9267,70.8081-7.8089c35.4883-2.8824,35.4877-2.8898,70.9758-5.7722
					c35.4873-2.8823,35.6176-1.2792,71.1047-4.1615c35.4877-2.8823,35.5522-2.0867,71.0399-4.969
					c35.488-2.8823,35.4117-3.8224,70.8998-6.7047c35.488-2.8823,35.7051-0.2095,71.1931-3.0918
					c35.4879-2.8823,35.3247-4.8913,70.8125-7.7736c35.489-2.8824,35.309-5.0993,70.798-7.9817
					c35.4882-2.8824,35.8115,1.0981,71.2997-1.7843c35.4884-2.8824,35.2216-6.1685,70.71-9.0509
					c35.4857-2.8822,35.5887-1.6144,71.0746-4.4966c35.4865-2.8822,35.3102-5.0528,70.7966-7.9351
					c35.4872-2.8823,35.7639,0.5253,71.2511-2.357c35.489-2.8824,35.3572-4.5042,70.8464-7.3867
					c35.4895-2.8825,35.6201-1.2748,71.1099-4.1573c35.4885-2.8824,35.2095-6.3167,70.698-9.1991
					c35.4902-2.8825,35.6702-0.6653,71.1602-3.5478c35.4897-2.8825,35.6663-0.7072,71.156-3.5897
					c35.488-2.8824,35.2285-6.0777,70.7168-8.96c35.49-2.8825,35.7224-0.0221,71.2122-2.9046
					c35.491-2.8826,35.2705-5.5967,70.7615-8.4793c35.4927-2.8827,35.3345-4.8305,70.8269-7.7132
					c35.4927-2.8827,44.825-27.2331,71.1858-3.2925c25.9958,23.6093-0.5598,35.1164-0.5598,70.2332
					c0,35.1169,0.0464,35.1169,0.0464,70.2338c0,35.1143,1.0403,35.1143,1.0403,70.2287c0,35.115,1.5256,35.115,1.5256,70.23
					c0,35.1157-2.1829,35.1157-2.1829,70.2314c0,35.1176,0.574,35.1176,0.574,70.2351c0,35.1182-1.2314,35.1182-1.2314,70.2364
					c0,35.1171,2.0352,35.1171,2.0352,70.2342c0,35.1185-0.9509,35.1185-0.9509,70.237c0,35.1181-1.2908,35.1181-1.2908,70.2362
					c0,35.1168,2.6843,35.1168,2.6843,70.2336c0,35.1184-1.8828,35.1184-1.8828,70.2368c0,35.1194,1.1362,35.1194,1.1362,70.2388
					c0,35.1211-3.5334,35.1782-2.5859,70.2865C2734.3054,993.7573,2737.8469,993.8182,2734.6682,1028.7952z"/>
			</g>
		</g>
		<g>
			<defs>
				<path id="SVGID_16_" d="M-0.8787,311.44c6.1812,1.6446,28.1397,7.547,64.4462,10.9418
					c17.8027,1.6646,39.3265,1.6784,64.4412,2.0623c24.7004,0.3775,49.2531,3.4715,73.6794,3.3788
					c24.6789-0.0937,49.2522-1.2475,73.6972-1.7471c24.6496-0.5038,49.2067-1.401,73.6655-2.2418
					c24.6167-0.8463,49.2041-0.9509,73.6756-2.061c24.5829-1.1152,49.1215-2.36,73.6066-3.663
					c24.5499-1.3064,48.9803-4.2932,73.481-5.709c24.5206-1.417,48.851-5.8969,73.3717-7.344
					c24.4962-1.4457,49.1359-0.6718,73.6816-2.0681c24.4772-1.3925,48.9808-2.9608,73.556-4.2255
					c24.4632-1.2589,48.8998-4.5508,73.5084-5.6052c24.4503-1.0477,49.0751-0.0007,73.7163-0.7702
					c24.4395-0.7632,49.032,0.9885,73.7055,0.5735c24.4257-0.4108,48.9465-0.4757,73.6464-0.4729
					c23.619,0.0027,47.2167-2.9455,70.7178-2.2233c23.5905,0.7249,47.058,3.6066,70.5479,4.9456
					c23.5502,1.3424,47.2648,0.1681,70.7322,2.0158c23.5059,1.8507,46.6244,8.0016,70.0656,10.2469
					c23.4648,2.2475,46.8226,5.2018,70.2412,7.7317c23.4312,2.5313,47.1,2.8104,70.5033,5.5114
					c23.4086,2.7016,46.7164,6.2384,70.1157,8.9966s47.0425,3.417,70.4509,6.1186c23.4028,2.7009,46.5941,7.2933,70.0248,9.8245
					c23.4178,2.5298,47.0984,2.4659,70.5625,4.7133c23.4409,2.2452,46.5859,8.0098,70.0916,9.8605
					c23.4668,1.8477,47.1913,0.2573,70.7408,1.5996c23.4896,1.339,46.9808,2.576,70.5712,3.3009
					c23.5007,0.7222,47.0162,1.584,70.6349,1.5867c17.2783,0.002,40.729-0.0287,67.2036-2.4725
					c20.8748-1.9269,43.3623-7.1625,66.593-9.9027c22.291-2.6293,45.0967-4.4396,66.8831-7.2552
					c23.908-3.0897,46.7107-6.2136,66.7043-8.8317c31.5854-4.136,56.3123-5.4199,66.9902-6.0352
					c13.6162-0.7846,36.7747-4.2062,60.0369-5.4258c23.3044-1.2218,46.6714-0.1333,60.2556-0.1333
					c15.7434,0,25.4021-1.2523,34.5034-3.6911c4.6672,37.1852-0.3501,37.3925-0.3501,74.8694
					c0,37.4785-0.7612,37.4785-0.7612,74.957c0,37.4781,0.5581,37.4781,0.5581,74.9561c0,37.4766-1.031,37.4766-1.031,74.9533
					c0,37.4783,1.7053,37.4783,1.7053,74.9567c0,37.4795,0.9685,37.4795,0.9685,74.9589c0,37.4813-1.6362,37.4813-1.6362,74.9625
					s11.2458,38.7911-0.6885,74.3215c-24.3186-2.5632-47.7002-4.3089-73.5515-2.6786c-24.3691,1.5369-49.425,5.6037-74.946,9.6174
					c-24.2834,3.819-49.1511,8.203-74.2974,13.1934c-24.3064,4.8237-48.9946,9.8544-73.9458,14.8129
					c-24.4741,4.8636-48.9143,11.0765-73.8577,15.1708c-24.7437,4.0615-49.5999,8.2567-74.6584,10.6885
					c-25.0002,2.4261-50.1777,3.7603-75.3461,3.7002c-24.7723-0.0592-49.4889-0.553-74.0917-1.376
					c-24.7788-0.8288-49.4688-2.0463-74.0178-3.5416c-24.7728-1.509-49.5494-1.8588-74.0291-3.9355
					c-24.7618-2.1007-49.2554-5.8159-73.656-8.3828c-24.7513-2.6038-49.1388-6.8272-73.4547-9.791
					c-24.7488-3.0167-49.0873-7.3572-73.3176-10.621c-24.7614-3.3352-49.2935-6.2323-73.4418-9.6915
					c-24.7953-3.5519-49.5603-4.9737-73.6321-8.5114c-24.8573-3.6531-49.2275-7.8047-73.2284-11.2837
					c-24.9587-3.6179-49.3544-7.652-73.2916-10.9033c-25.1035-3.4097-49.5128-7.5344-73.3835-10.3362
					c-25.3119-2.9709-49.9867-5.0288-73.7827-7.0735c-25.5859-2.1984-50.3219-3.1991-73.9955-4.0269
					c-22.2094-0.7766-46.4382-2.3879-72.2468-1.9282c-22.867,0.4073-46.9525,3.5155-72.1168,4.7114
					c-23.2226,1.1036-47.3238,2.2837-72.0965,3.9189c-23.4561,1.5484-47.3544,5.3892-71.8597,7.2969
					c-23.6298,1.8396-47.9798-0.0123-72.283,2.0574c-23.7752,2.0247-47.851,3.6443-71.9896,5.7924
					c-23.9113,2.1278-47.7353,6.5084-71.7316,8.6638c-24.049,2.1601-48.2512,2.2836-72.1139,4.3777
					c-24.1989,2.1237-47.8851,8.2798-71.6108,10.2388c-24.3757,2.0126-48.6942,0.5593-72.267,2.2936
					c-24.5975,1.8096-48.6789,3.1046-72.06,4.4932c-24.9023,1.4789-48.9772,2.8844-72.0903,3.7449
					c-25.3632,0.9442-49.4774,2.5943-72.153,2.6101c-26.1748,0.0182-50.4541,0.6099-72.2472-0.8846
					c-28.099-1.927-53.2561-5.8348-72.438-10.8391c-16.6843-32.7529,0.3148-33.3232,0.2562-74.0935
					c-0.0337-23.4194,0.0753-49.4872,0.0411-73.5175c-0.0449-31.5517,1.9113-59.5941,1.8929-73.5164
					c-0.0305-23.0582,0.0672-46.1166,0.0367-69.1749c-0.0305-23.0582-3.0359-46.1125-3.0664-69.1708
					c-0.0305-23.0582,1.3814-46.1183,1.3509-69.1766s2.0473-46.1192,2.0168-69.1775c-0.0273-20.6557-3.3167-41.307-3.344-61.9627
					C-1.1376,353.0372-0.8514,332.0956-0.8787,311.44z"/>
			</defs>
			<clipPath id="SVGID_17_">
				<use xlink:href="#SVGID_16_"  style="overflow:visible;"/>
			</clipPath>
		</g>
	</g>
	<g class="st21">
		<path class="st22" d="M53.7891,648.624c0,0,9.5503-1.8335,27.5027-4.9113c17.9505-3.1065,44.3145-7.439,77.9522-12.3986
			c33.6361-4.9699,74.5419-10.612,121.5739-16.249c5.8806-0.692,11.8553-1.3951,17.922-2.1091
			c6.0696-0.691,12.231-1.3925,18.4821-2.1041c6.2532-0.6971,12.596-1.4043,19.026-2.1211
			c6.4348-0.674,12.9568-1.3572,19.5638-2.0493c6.6096-0.6719,13.3041-1.3525,20.0812-2.0414
			c6.7798-0.6641,13.638-1.3879,20.5851-2.0261c13.8938-1.2808,28.1089-2.6047,42.6382-3.8411
			c29.056-2.4912,59.3494-4.8469,90.7385-6.8539c15.6907-1.0529,31.6619-1.9315,47.8766-2.881
			c16.2245-0.796,32.694-1.6335,49.405-2.2825c33.4149-1.4213,67.7741-2.344,102.9161-2.5023
			c8.7826-0.1308,17.6195-0.0041,26.4981,0.0145c4.4395,0.0203,8.8901,0.0408,13.3518,0.0612l3.4096,0.0469l3.3401,0.0759
			c2.2281,0.0543,4.4588,0.1085,6.6923,0.1629c4.4402,0.084,9.0236,0.2906,13.551,0.4386c2.2698,0.0856,4.5422,0.1713,6.8173,0.257
			c2.2647,0.1171,4.532,0.2343,6.8018,0.3516c9.0795,0.4407,18.1895,1.0142,27.3281,1.6813
			c73.1507,5.3742,147.7882,17.3625,223.1571,30.4459c37.6986,6.5609,75.6271,13.4174,113.6758,20.418
			c38.0482,6.9944,76.2389,14.0147,114.4738,20.6949c76.4783,13.3159,153.0497,25.6038,228.4259,35.3709
			c37.6904,4.8669,75.1248,8.9384,112.1597,11.5457c37.0305,2.6218,73.6428,3.884,109.5897,3.6168
			c4.5179-0.0498,9.0264-0.0995,13.5251-0.149c4.5358-0.0492,8.9272-0.1857,13.3821-0.2731
			c4.427-0.0757,8.8969-0.2674,13.3287-0.3978c4.4396-0.1083,8.8644-0.3084,13.28-0.4773
			c17.6614-0.701,35.127-1.8232,52.3865-3.1274c17.26-1.3093,34.3016-2.9806,51.111-4.9006
			c16.8147-1.8762,33.3934-4.0568,49.7185-6.491c65.3381-9.5366,126.5997-23.1328,183.5443-35.3253
			c28.4739-6.0845,55.8525-11.8853,82.0408-16.8557c13.0901-2.505,25.8765-4.824,38.3389-6.9189
			c12.4597-2.1058,24.5854-4.0486,36.3687-5.7177c23.5496-3.4352,45.6943-5.9494,66.1892-7.882
			c20.5061-1.8594,39.3711-3.0936,56.4165-3.8452c8.5203-0.4101,16.5903-0.6387,24.1804-0.8355
			c3.7952-0.0796,7.4712-0.1567,11.0261-0.2312c3.5552-0.0261,6.989-0.0513,10.2993-0.0755
			c6.6184-0.0494,12.7427,0.0114,18.3491,0.0267c5.6086,0.0864,10.7002,0.1158,15.2603,0.2418
			c4.5581,0.1302,8.5847,0.2452,12.0603,0.3445c3.4736,0.1328,6.3967,0.2444,8.7505,0.3344
			c4.7051,0.2032,7.1335,0.3081,7.1335,0.3081v2.8c0,0-2.4224,0.1298-7.1162,0.3814c-2.3457,0.1197-5.259,0.2684-8.7207,0.4451
			c-3.4592,0.2067-7.4666,0.4462-12.0029,0.7173c-18.1365,1.1057-44.7153,3.0342-78.3362,6.8038
			c-16.8079,1.902-35.374,4.2757-55.5034,7.3335c-10.062,1.5527-20.5239,3.1999-31.3423,5.1196
			c-5.4143,0.9205-10.9141,1.9393-16.5115,2.9416c-5.5891,1.062-11.2766,2.105-17.0417,3.2611
			c-23.083,4.4808-47.5269,9.8651-73.2529,15.8494c-25.717,6.0402-52.7119,12.7364-80.947,19.798
			c-14.1494,3.4868-28.594,7.0462-43.3147,10.6737c-14.7554,3.5782-29.8379,7.1118-45.2306,10.5881
			c-15.3893,3.4919-31.1135,6.8129-47.1436,9.9661c-16.0316,3.1398-32.3601,6.1723-48.9961,8.8293
			c-16.6344,2.6627-33.5544,5.0729-50.7307,7.1758c-17.1814,2.0608-34.6222,3.7584-52.277,5.1462
			c-17.6553,1.3945-35.5364,2.2993-53.5887,2.9373c-9.0347,0.3321-18.0802,0.5233-27.2291,0.6226
			c-4.562,0.0287-9.2065,0.106-13.7281,0.0938c-4.5585-0.0121-9.1268-0.0243-13.7047-0.0364
			c-36.8236-0.3276-74.173-2.485-111.7745-6.0198c-37.603-3.5512-75.475-8.4167-113.3999-14.4917
			c-75.8826-12.129-151.7152-29.7401-227.4462-46.8405c-75.7365-17.07-151.6571-33.1886-227.1349-44.4435
			c-37.7299-5.6049-75.3259-9.9603-112.5364-12.9007c-37.2106-2.9376-74.0012-4.7171-110.1396-5.3392
			c-9.0354-0.1237-18.0269-0.301-26.9775-0.3056c-4.4794-0.0325-8.9387-0.0303-13.3655-0.0148
			c-4.4484,0.0204-8.8188-0.0187-13.3138,0.0626c-8.8945,0.1148-17.7465,0.2291-26.5538,0.3428
			c-8.815,0.1423-17.5851,0.2839-26.308,0.4248c-34.8932,0.577-69.0353,1.6011-102.2766,2.6436
			c-33.2389,1.1189-65.572,2.5135-96.8433,4.0757c-15.6358,0.8163-31.0072,1.6187-46.0953,2.4064
			c-15.0857,0.8936-29.8882,1.7703-44.3886,2.6292c-58.0006,3.5585-111.1577,7.3765-158.2673,11.0113
			c-47.1062,3.6735-88.1788,7.0463-121.9956,9.9908c-33.8222,2.9963-60.3968,5.3506-78.5159,6.9558
			c-18.1179,1.6786-27.7807,2.574-27.7807,2.574L53.7891,648.624z"/>
	</g>
	<g class="st21">
		<path class="st22" d="M1128.7556,447.696c0,0,1.1958-0.4122,3.5554-1.1522c2.3579-0.7551,5.8674-1.7817,10.449-3.1251
			c2.2876-0.6932,4.8667-1.3387,7.6959-2.1138c2.8318-0.7613,5.9221-1.6083,9.2776-2.4382
			c3.351-0.8565,6.9575-1.7609,10.8125-2.7004c3.8651-0.8854,7.9723-1.8262,12.312-2.8203
			c2.1732-0.4881,4.4045-0.9892,6.6927-1.5031c2.2953-0.4741,4.6477-0.9601,7.0562-1.4575
			c4.8214-0.9716,9.8627-2.0352,15.1323-3.0587c10.5585-1.8978,21.9686-4.111,34.2317-5.9588
			c24.4884-4.0266,52.2771-7.4567,82.6674-10.4703c7.6064-0.6491,15.3713-1.3116,23.2848-1.9869
			c7.9117-0.7299,15.9926-1.1271,24.2061-1.6491c8.2147-0.4964,16.5692-1.0292,25.0599-1.3661
			c4.2454-0.1655,8.5266-0.2464,12.8367-0.3745c4.3105-0.1162,8.6516-0.2462,13.024-0.3181
			c4.3723-0.0651,8.7721-0.2184,13.2034-0.2125c4.4313,0.0333,8.8911,0.0667,13.3782,0.1004
			c8.9736,0.1023,18.054,0.2243,27.23,0.4108c9.1716,0.3961,18.4426,0.7965,27.8029,1.2008
			c4.6766,0.2082,9.3756,0.4174,14.0956,0.6276l3.5852,0.1687l3.5387,0.2236c2.3617,0.1492,4.7285,0.2988,7.1003,0.4487
			c4.7487,0.321,9.4949,0.5609,14.3009,0.9212c4.8004,0.3489,9.6194,0.6991,14.4557,1.0506
			c4.8392,0.3038,9.6733,0.7597,14.5302,1.1276c4.8545,0.3859,9.7249,0.773,14.6102,1.1613
			c4.8812,0.4198,9.7772,0.8409,14.6869,1.2632c4.9135,0.36,9.8297,0.8506,14.7611,1.3005
			c4.9294,0.4714,9.8832,0.8062,14.8315,1.3206c4.95,0.4968,9.915,0.9482,14.8905,1.3983
			c39.7721,3.8806,80.1389,8.2947,120.4773,13.1878c20.1641,2.4619,40.2985,5.1507,60.3197,7.9768
			c9.9951,1.4806,19.9707,2.9583,29.9169,4.4317c9.9218,1.5549,19.8142,3.1052,29.6675,4.6493
			c39.3597,6.3284,78.0382,12.3745,115.4714,16.6562c18.7142,2.1503,37.1082,3.9221,55.1018,5.1183
			c4.4971,0.2634,8.9719,0.6323,13.4172,0.8062c4.4456,0.1875,8.8657,0.3739,13.2588,0.5591
			c4.3901,0.1169,8.7537,0.233,13.0889,0.3485c4.3623,0.0074,8.6963,0.0148,13.001,0.0222
			c4.3538,0.0194,8.678,0.0387,12.9712,0.0579c4.3201,0.0778,8.4797-0.0842,12.6655-0.1401
			c4.175-0.0774,8.3181-0.1543,12.4282-0.2305c4.1106-0.0828,8.1868-0.0967,12.2573-0.2909
			c8.1301-0.296,16.1228-0.587,23.968-0.8726c7.8459-0.419,15.5447-0.8301,23.0862-1.2328
			c30.1672-1.7986,57.8193-4.1154,82.3254-6.4578c12.2341-1.3149,23.709-2.4321,34.2998-3.6538
			c2.6499-0.295,5.2456-0.5841,7.7861-0.8669c2.5369-0.3109,5.0186-0.6151,7.4441-0.9124
			c4.8557-0.5808,9.4858-1.1347,13.8804-1.6604c17.5684-2.203,31.3652-4.095,40.772-5.42c9.3982-1.3696,14.4106-2.1,14.4106-2.1
			l0.4399,1.951c0,0-4.8833,1.4467-14.0972,3.8827c-9.2246,2.3839-22.7817,5.8056-40.1646,9.6056
			c-4.3433,0.963-8.9268,1.9409-13.7412,2.933c-2.408,0.4949-4.8718,1.0012-7.3901,1.5188
			c-2.5239,0.4897-5.1023,0.9901-7.7346,1.5009c-5.2686,0.9994-10.74,2.135-16.4436,3.1387
			c-5.707,0.994-11.6199,2.0239-17.7283,3.0878c-24.4653,4.0914-52.1982,8.0551-82.6187,11.246
			c-7.6143,0.7268-15.3872,1.4688-23.3088,2.2249c-7.9429,0.571-16.0349,1.1526-24.2659,1.7442
			c-4.1067,0.3256-8.2903,0.5252-12.5046,0.7021c-4.2144,0.1865-8.4624,0.3745-12.7432,0.5639
			c-8.6101,0.4597-17.1514,0.5682-25.8643,0.6974c-4.4023,0.0563-8.8345,0.113-13.2954,0.1701
			c-4.4863-0.0536-9.0017-0.1075-13.5447-0.1618c-4.5388-0.1088-9.0957-0.348-13.6841-0.5183
			c-4.5896-0.1691-9.1814-0.5329-13.8115-0.7932c-18.4933-1.2704-37.2828-3.2884-56.2654-5.8741
			c-37.9768-5.1656-76.7158-12.4315-115.9366-19.8936c-39.2211-7.4999-78.7915-16.0071-118.5343-23.6967
			c-9.9429-1.8634-19.8872-3.7417-29.8429-5.4821c-4.9779-0.8748-9.9595-1.7054-14.9414-2.5101
			c-4.9824-0.7995-9.9539-1.6685-14.9364-2.4095c-19.9176-3.0815-39.8439-5.5359-59.6508-7.5844
			c-19.812-1.9972-39.5201-3.4337-59.015-4.2515c-4.8717-0.2332-9.7371-0.3038-14.5801-0.463
			c-4.8433-0.1478-9.6744-0.2667-14.4777-0.2808c-9.6075-0.0886-19.1322-0.1339-28.6576,0.07
			c-2.3762,0.0353-4.7476,0.0706-7.1136,0.1057l-3.5454,0.0527l-3.4851,0.1091c-4.6969,0.1545-9.3728,0.3083-14.0265,0.4613
			c-9.3004,0.2952-18.5121,0.5876-27.625,0.8769c-9.1071,0.459-18.1117,0.8506-27.0056,1.2191
			c-4.4467,0.1668-8.8661,0.3326-13.2573,0.4974c-4.3906,0.1579-8.749,0.4261-13.0793,0.6313
			c-4.3295,0.2336-8.6309,0.407-12.901,0.592c-4.2705,0.1731-8.5082,0.3912-12.7173,0.5225
			c-4.2106,0.1071-8.3782,0.423-12.5187,0.6232c-4.1401,0.2065-8.2471,0.4113-12.3196,0.6144
			c-8.1455,0.4001-16.1586,0.731-24.0068,1.2975c-7.8551,0.4877-15.5627,0.9662-23.113,1.435
			c-30.1785,2.1389-57.8511,4.2896-82.322,6.8186c-6.1249,0.5795-12.0569,1.1341-17.7635,1.8024
			c-5.7174,0.6143-11.2288,1.2065-16.5244,1.7756c-5.29,0.6246-10.3645,1.2237-15.2137,1.7962
			c-2.4269,0.2821-4.7975,0.5576-7.1105,0.8265c-2.3081,0.2986-4.5587,0.5898-6.7506,0.8733
			c-17.5616,2.1655-31.3217,4.1987-40.7109,5.6033c-4.6919,0.7138-8.2898,1.2735-10.6989,1.6864
			c-2.4197,0.3759-3.6742,0.607-3.6742,0.607L1128.7556,447.696z"/>
	</g>
	<g class="st21">
		<path class="st22" d="M744.1569,831.5126c0,0,0.6225-0.3752,1.8286-1.1022c1.2134-0.7141,3.0082-1.7909,5.3943-3.1096
			c4.7704-2.6382,11.7872-6.5048,20.9386-10.9952c9.1379-4.5189,20.3799-9.7294,33.4938-15.2336
			c13.1162-5.4951,28.1196-11.2411,44.7411-16.8428c16.6244-5.5861,34.8719-11.0135,54.4406-15.8271
			c19.5674-4.8015,40.452-9.0303,62.2931-12.0923c10.9167-1.5519,22.0637-2.8647,33.3935-3.7913
			c2.8329-0.2331,5.6744-0.4669,8.5237-0.7014c2.8503-0.23,5.7178-0.3457,8.5882-0.5243c2.8726-0.1503,5.7523-0.3008,8.6386-0.4518
			c2.8909-0.0732,5.7882-0.1464,8.6913-0.2198c2.9039-0.054,5.812-0.1887,8.7291-0.1757c2.9174,0.0064,5.8397,0.0129,8.7664,0.0193
			l4.394,0.0106l1.0995,0.0028l0.6709,0.011l0.5394,0.015l2.1583,0.0599c2.8783,0.0952,5.7601,0.1905,8.6447,0.2858l4.3328,0.1486
			l4.4333,0.2485c2.9569,0.1667,5.916,0.3336,8.8765,0.5005c5.9072,0.3677,11.7467,0.8951,17.6261,1.3453
			c23.4426,2.2711,46.7573,5.7067,69.4252,10.2217c5.6614,1.1436,11.2965,2.3016,16.8827,3.5192
			c5.5704,1.2814,11.1239,2.5175,16.5999,3.8792c10.9854,2.6254,21.7494,5.4423,32.2953,8.3287
			c21.078,5.7717,41.2291,11.8177,60.2976,17.4283c19.0612,5.626,37.0563,10.8111,53.7668,15.1583
			c16.7018,4.3788,32.1248,7.8977,45.8978,10.5876c13.771,2.6876,25.8804,4.6508,35.9092,5.9218
			c5.0098,0.7147,9.5012,1.1875,13.4138,1.6296c1.958,0.2201,3.7697,0.4237,5.4293,0.6103
			c1.6636,0.1401,3.1749,0.2675,4.5283,0.3815c5.4246,0.4915,8.3176,0.7536,8.3176,0.7536s-2.9012,0.1778-8.3411,0.5111
			c-1.3628,0.0745-2.8844,0.1576-4.5593,0.2491c-1.6761,0.0449-3.5057,0.0939-5.4829,0.1468
			c-1.9807,0.0497-4.1094,0.1031-6.3802,0.1602c-2.2723,0.0431-4.6823-0.0233-7.2351-0.0318
			c-10.2124-0.0148-22.6169-0.6195-36.8112-1.9171c-14.1921-1.3071-30.1523-3.4697-47.4114-6.5461
			c-4.3157-0.7602-8.7168-1.577-13.1787-2.4774c-2.2345-0.442-4.4901-0.8881-6.766-1.3381
			c-2.2682-0.473-4.5566-0.9501-6.8646-1.4313c-9.2368-1.9222-18.7139-4.1224-28.4575-6.351
			c-19.3529-4.6204-39.7614-9.4929-60.8735-14.5334c-10.5345-2.3887-21.2106-4.9144-32.0503-7.1769
			c-10.8359-2.3096-21.8185-4.4393-32.8943-6.4929c-22.1791-3.9186-44.7805-7.2081-67.4958-9.2923
			c-5.6737-0.4642-11.3767-1.0125-17.0231-1.3953c-2.8187-0.1753-5.636-0.3505-8.4512-0.5256l-4.2216-0.264l-4.3237-0.1725
			c-2.884-0.1136-5.7651-0.227-8.6427-0.3403l-2.1571-0.0963l-0.5391-0.0241l-0.4077-0.0122l-1.0579-0.02l-4.2278-0.0803
			c-2.817-0.0541-5.6299-0.1082-8.4379-0.1622c-2.8083-0.0613-5.6147,0.0243-8.4146,0.0285
			c-2.8005,0.023-5.5955,0.0459-8.3842,0.0688c-2.7888,0.092-5.5715,0.1838-8.3472,0.2754
			c-2.7761,0.0952-5.5481,0.1268-8.309,0.2727c-2.7613,0.1497-5.5149,0.2991-8.2602,0.448
			c-5.4952,0.2377-10.9432,0.741-16.3597,1.15c-1.3541,0.1052-2.7059,0.2103-4.0551,0.3152
			c-1.3475,0.1295-2.6925,0.2589-4.0349,0.3879c-2.6858,0.2578-5.3612,0.5146-8.0256,0.7704
			c-21.3037,2.2084-41.8342,5.305-61.2056,8.914c-19.3759,3.5931-37.6023,7.6693-54.3382,11.8748
			c-33.4853,8.3944-60.9953,17.2813-80.1107,23.9542c-9.5504,3.3606-17.0444,6.0909-22.1045,8.0797
			c-2.5329,0.9938-4.4748,1.7558-5.7835,2.2692C744.8295,831.2386,744.1569,831.5126,744.1569,831.5126z"/>
	</g>
	<g class="st21">
		<path class="st22" d="M131.3527,458.8394c0,0,1.1122-0.4881,3.267-1.4339c2.165-0.9072,5.3804-2.2458,9.6045-3.9139
			c4.2363-1.6277,9.4736-3.608,15.6696-5.831c6.2035-2.1961,13.3704-4.615,21.4435-7.1835
			c16.1485-5.1217,35.9429-10.7798,58.9023-16.2526c22.9554-5.4781,49.0735-10.7858,77.7805-15.2768
			c14.3448-2.2974,29.3559-4.2645,44.9409-5.8158c15.5854-1.5472,31.7509-2.6137,48.3833-3.2177
			c16.6339-0.5916,33.7225-0.8374,51.1684-0.865c17.4455-0.0501,35.2434-0.0008,53.3322,0.0487
			c18.0892,0.0501,36.4731,0.1501,55.0933,0.4058c9.3137,0.1494,18.6839,0.2996,28.1013,0.4506
			c4.7096,0.1136,9.4359,0.1692,14.1678,0.3433c4.7332,0.149,9.4852,0.2033,14.2397,0.3958
			c9.5134,0.3157,19.0696,0.6884,28.6522,1.1888c4.7909,0.2549,9.5921,0.5008,14.3915,0.847l7.2084,0.4851l1.8039,0.1215
			l0.4511,0.0304l0.5377,0.0542l0.8943,0.0881l3.5785,0.3526c2.4344,0.2787,4.9796,0.5905,7.4088,0.9378
			c2.4219,0.3665,4.8655,0.6921,7.2701,1.1063c4.8322,0.7791,9.6385,1.6323,14.4201,2.5532
			c9.5744,1.8075,19.0634,3.8872,28.5111,6.0698c18.8806,4.4109,37.5837,9.2887,56.1581,14.2614
			c18.5731,4.9796,37.0161,10.0587,55.2811,15.1705c36.5363,10.1973,72.3628,20.5014,106.9799,30.5528
			c17.3073,5.0042,34.3262,9.9251,50.9844,14.7417c16.6401,4.859,32.9579,9.4551,48.8354,13.9388
			c31.7726,8.9006,61.8663,17.0574,89.7632,24.076c27.8971,7.0023,53.5563,13.064,76.4417,17.7204
			c11.4324,2.3755,22.1592,4.4951,32.1134,6.2192c4.98,0.856,9.7571,1.6771,14.322,2.4617
			c4.5734,0.7205,8.9344,1.4507,13.0858,2.0233c2.0754,0.299,4.0953,0.59,6.0585,0.8728c1.9662,0.2575,3.8754,0.5076,5.7267,0.7501
			c3.7015,0.5258,7.1797,0.9078,10.4172,1.2951c3.2367,0.4082,6.2385,0.6663,8.989,0.9518c2.7507,0.2877,5.2517,0.512,7.494,0.6962
			c4.4838,0.4199,7.9286,0.6128,10.2513,0.7731c2.324,0.1618,3.5234,0.2454,3.5234,0.2454v2c0,0-1.2067,0.0563-3.5447,0.1653
			c-2.3392,0.1129-5.813,0.2677-10.3467,0.3307c-2.2675,0.046-4.8025,0.1165-7.5883,0.0757
			c-2.7865-0.0245-5.835,0.0018-9.1211-0.0994c-3.2878-0.0803-6.8279-0.1332-10.595-0.3082
			c-1.8851-0.0823-3.8292-0.1672-5.8313-0.2545c-1.9994-0.1205-4.0566-0.2444-6.1705-0.3718
			c-8.4575-0.5187-17.8142-1.2362-27.9724-2.2852c-10.1624-1.0262-21.1179-2.3935-32.8108-3.9697
			c-11.6892-1.603-24.0746-3.6159-37.1121-5.8411c-13.0399-2.2159-26.7019-4.795-40.9169-7.663
			c-28.4169-5.7894-59.045-12.7416-91.2303-20.8185c-16.1025-4.0019-32.5759-8.3521-49.4014-12.8195
			c-16.7932-4.5833-33.9473-9.2561-51.3065-14.2796c-34.7554-9.9174-70.4605-20.7743-106.687-31.8136
			c-36.2261-11.01-73.0303-22.1452-109.9755-32.0338c-9.2316-2.4702-18.4739-4.8418-27.7033-7.0691
			c-4.6166-1.1125-9.2342-2.1532-13.8464-3.1172c-2.3082-0.509-4.6089-0.9219-6.9134-1.3815l-6.8159-1.2214
			c-4.695-0.7144-9.3854-1.4282-14.0701-2.1411c-4.7068-0.7293-9.4214-1.3498-14.1255-2.0257
			c-9.4113-1.32-18.8154-2.5287-28.2016-3.5875c-9.3828-1.1064-18.7521-2.0005-28.0864-2.7755
			c-9.3326-0.8073-18.636-1.4084-27.8909-1.8464c-18.5098-0.8813-36.8275-1.1392-54.8312-0.7506
			c-18.0042,0.3948-35.69,1.5004-52.9461,3.0965c-17.256,1.6202-34.0874,3.6201-50.4265,5.7636
			c-32.6114,4.372-63.444,8.5055-91.9048,12.321c-56.8407,7.9651-103.9561,16.6278-136.9059,23.1809
			c-8.2394,1.6301-15.5893,3.1446-21.9825,4.4868c-6.4014,1.3135-11.8387,2.4835-16.2371,3.4763
			c-4.4105,0.9529-7.7889,1.7089-10.0583,2.2409c-2.2708,0.5204-3.4428,0.7891-3.4428,0.7891L131.3527,458.8394z"/>
	</g>
</g>
<g id="sand_x5F_foreground">
	<polyline class="st23" points="237.364,722.6874 242.9697,706.5104 268.1652,706.5104 274.1308,722.6874 268.4385,722.6874 
		264.6192,711.2695 246.6557,711.0829 242.963,722.6874 237.364,722.6874 	"/>
	<polygon class="st23" points="227.9701,722.6874 229.2494,730.5866 236.7479,771.1634 273.4367,771.1634 283.1648,722.6874 	"/>
	<linearGradient id="SVGID_18_" gradientUnits="userSpaceOnUse" x1="145.414" y1="774.8301" x2="145.414" y2="674.5104">
		<stop  offset="0" style="stop-color:#EFBD90;stop-opacity:0"/>
		<stop  offset="0.0743" style="stop-color:#EDB986;stop-opacity:0.0743"/>
		<stop  offset="0.2209" style="stop-color:#EBB47B;stop-opacity:0.2209"/>
		<stop  offset="0.4272" style="stop-color:#EAB174;stop-opacity:0.4272"/>
		<stop  offset="1" style="stop-color:#EAB072"/>
	</linearGradient>
	<polygon class="st24" points="84.1951,774.8301 92.1961,711.4379 121.7381,711.4379 126.0463,674.5104 134.1242,674.5104 
		135.0859,684.6077 141.8367,684.4923 142.7599,674.5104 149.5107,674.5104 150.9531,684.3192 158.5694,684.3192 159.7234,674.5104 
		165.9549,674.5104 169.59,711.7841 198.2088,711.6686 206.6329,773.753 	"/>
	<g>
		<polygon class="st15" points="2357.6943,798.5518 2380.9424,628.5535 2394.1628,630.4938 2365.946,799.3665 		"/>
		<linearGradient id="SVGID_19_" gradientUnits="userSpaceOnUse" x1="2248.5356" y1="621.0554" x2="2517.5532" y2="621.0554">
			<stop  offset="0" style="stop-color:#35A0F5"/>
			<stop  offset="0.1715" style="stop-color:#3DA6F5"/>
			<stop  offset="0.5158" style="stop-color:#46AEF5"/>
			<stop  offset="1" style="stop-color:#49B0F5"/>
		</linearGradient>
		<polygon class="st25" points="2398.5039,554.6245 2248.5356,620.6341 2303.5588,660.2248 2379.1665,687.4863 2455.9895,687.4863 
			2517.5532,666.1758 		"/>
		<linearGradient id="SVGID_20_" gradientUnits="userSpaceOnUse" x1="2248.5356" y1="607.4246" x2="2398.5039" y2="607.4246">
			<stop  offset="0" style="stop-color:#1E83E3"/>
			<stop  offset="1" style="stop-color:#2A90E3"/>
		</linearGradient>
		<polygon class="st26" points="2398.5039,554.6245 2248.5356,620.6341 2303.5588,660.2248 		"/>
		<linearGradient id="SVGID_21_" gradientUnits="userSpaceOnUse" x1="2303.5588" y1="621.0554" x2="2398.5039" y2="621.0554">
			<stop  offset="0" style="stop-color:#35A0F5"/>
			<stop  offset="1" style="stop-color:#49B0F5"/>
		</linearGradient>
		<polygon class="st27" points="2398.5039,554.6245 2303.5588,660.2248 2379.1665,687.4863 		"/>
		<linearGradient id="SVGID_22_" gradientUnits="userSpaceOnUse" x1="2379.1665" y1="621.0554" x2="2455.9895" y2="621.0554">
			<stop  offset="0" style="stop-color:#3796E3"/>
			<stop  offset="1" style="stop-color:#4CA7E3"/>
		</linearGradient>
		<polygon class="st28" points="2398.5039,554.6245 2379.1665,687.4863 2455.9895,687.4863 		"/>
		<polygon class="st17" points="2380.5439,674.6055 2314.0825,650.2273 2264.0745,613.2581 2248.5356,620.6341 2303.5588,660.2248 
			2379.1665,687.4863 2455.9895,687.4863 2517.5532,666.1758 2506.0588,655.8504 2450.0618,674.9086 		"/>
	</g>
	<linearGradient id="SVGID_23_" gradientUnits="userSpaceOnUse" x1="145.3293" y1="774.1824" x2="145.3293" y2="740.0558">
		<stop  offset="0" style="stop-color:#C69761;stop-opacity:0"/>
		<stop  offset="0.0729" style="stop-color:#C39663;stop-opacity:0.0729"/>
		<stop  offset="0.4897" style="stop-color:#B9936D;stop-opacity:0.4897"/>
		<stop  offset="1" style="stop-color:#B69270"/>
	</linearGradient>
	<path class="st29" d="M157.8211,774.1824h-24.9278c0,0-1.8692-21.0542,1.3823-26.8622c1.7523-3.1301,7.2634-7.1974,10.85-7.2635
		c3.6426-0.0672,9.2615,3.9373,11.0995,7.0829C159.6268,752.9614,157.8211,774.1824,157.8211,774.1824z"/>
</g>
</svg>
