<?xml version="1.0" encoding="utf-8"?>
<!-- Generator: Adobe Illustrator 18.0.0, SVG Export Plug-In . SVG Version: 6.00 Build 0)  -->
<!DOCTYPE svg PUBLIC "-//W3C//DTD SVG 1.1//EN" "http://www.w3.org/Graphics/SVG/1.1/DTD/svg11.dtd">
<svg version="1.1" id="Layer_1" xmlns="http://www.w3.org/2000/svg" xmlns:xlink="http://www.w3.org/1999/xlink" x="0px" y="0px"
	 viewBox="0 0 35 42" style="enable-background:new 0 0 35 42;" xml:space="preserve">
<style type="text/css">
	.st0{fill:#FFFFFF;}
</style>
<g>
	<path class="st0" d="M10.24,33.1313c0.2461,0.3907,0.4527,0.8057,0.6172,1.2413l2.48,6.4594
		c0.2207,0.5777,0.73,1.0244,1.3838,1.1402c0.6528,0.1147,1.2851-0.1309,1.6914-0.5996l4.5376-5.2212
		c0.3047-0.3521,0.6411-0.6714,1.0068-0.9546c-1.9624,0.0068-3.9526-0.1597-5.9507-0.5122
		C14.0066,34.3315,12.0799,33.8066,10.24,33.1313z"/>
	<g>
		<path class="st0" d="M29.1746,22.5957c-1.812-0.9341-3.1162-2.6343-3.5811-4.6006l-1.5581-6.6382
			c-0.3042-1.3755-1.3027-2.5346-2.664-3.0219l0.8344-4.7373c0.6929-0.1573,1.2588-0.7129,1.3892-1.4576
			c0.1753-0.9897-0.4868-1.9375-1.4785-2.1123c-0.9898-0.1748-1.9375,0.4893-2.1123,1.4795
			c-0.1309,0.7437,0.2114,1.459,0.8076,1.8443l-0.8345,4.7378c-1.4482-0.0079-2.7817,0.7397-3.5386,1.9282l-3.7338,5.7051
			c-1.1104,1.6894-2.9165,2.8393-4.9395,3.0981c-4.3213,0.5547-7.3066,2.0811-7.6992,4.3188
			c-0.6768,3.8531,6.5742,8.3497,16.2036,10.0474c9.6294,1.6978,17.9873-0.0464,18.6641-3.8994
			C35.3264,27.0503,33.0437,24.5952,29.1746,22.5957z"/>
	</g>
</g>
</svg>
